<?xml version="1.0" encoding="utf-8"?>
<!-- Generator: Adobe Illustrator 25.2.3, SVG Export Plug-In . SVG Version: 6.00 Build 0)  -->
<svg version="1.1" id="Capa_1" xmlns="http://www.w3.org/2000/svg" xmlns:xlink="http://www.w3.org/1999/xlink" x="0px" y="0px"
	 viewBox="0 0 186.1 186.1" style="enable-background:new 0 0 186.1 186.1;" xml:space="preserve">
<style type="text/css">
	.st0{fill:#FDD633;}
	.st1{fill:#F4A415;}
	.st2{fill:#D88B0F;}
	.st3{fill:#F4CA19;}
	.st4{fill:#FFD68D;}
	.st5{fill:#EFC469;}
</style>
<g>
	<path class="st0" d="M92.8,7.1C92.8,7.1,92.8,7.1,92.8,7.1C92.8,7.1,92.8,7.1,92.8,7.1z"/>
	<path class="st0" d="M90,6.2c0.1-0.3,0.3-0.7,0.5-1C90.3,5.5,90.2,5.8,90,6.2z"/>
	<path class="st0" d="M93.1,5.3C93.7,2.5,95.4,0,95.4,0c-0.9,0.6-1.7,1.2-2.4,1.9L93.1,5.3C93.1,5.3,93.1,5.3,93.1,5.3z"/>
	<path class="st0" d="M92.2,2.8c0.3-0.3,0.6-0.6,0.9-0.9C92.8,2.2,92.5,2.5,92.2,2.8z"/>
	<path class="st0" d="M90.6,5c0.2-0.3,0.4-0.6,0.6-0.9C91,4.4,90.8,4.7,90.6,5z"/>
	<path class="st0" d="M91.5,16.6c0.5,0.6,1,1.1,1.5,1.6C92.5,17.7,92,17.2,91.5,16.6z"/>
	<path class="st0" d="M91.3,4c0.2-0.3,0.5-0.6,0.7-1C91.7,3.4,91.5,3.7,91.3,4z"/>
	<path class="st0" d="M92.9,6.2C92.9,6.2,92.9,6.2,92.9,6.2C92.9,6.2,92.9,6.2,92.9,6.2z"/>
	<path class="st0" d="M90.7,186.1C90.7,186.1,90.7,186.1,90.7,186.1C90.7,186.1,90.7,186.1,90.7,186.1z"/>
	<path class="st0" d="M91.8,167c0.4,0.3,0.8,0.6,1.2,1C92.7,167.6,92.3,167.2,91.8,167z"/>
	<path class="st0" d="M91.8,185.3c-0.4,0.3-0.7,0.6-1.1,0.8C91.1,185.9,91.5,185.6,91.8,185.3z"/>
	<path class="st1" d="M93.1,177.3c0.3,1.2,0.3,2.4,0,3.6v3.4c-0.3,0.3-0.6,0.6-1,0.9c6.8-5.6,5.8-12.9,1-17.2L93.1,177.3
		C93.1,177.3,93.1,177.3,93.1,177.3z"/>
	<path class="st0" d="M90.5,166.1c0.5,0.3,0.9,0.5,1.4,0.8C91.4,166.6,90.9,166.4,90.5,166.1z"/>
	<path class="st0" d="M90.7,148.2c-0.2,0.2-0.4,0.4-0.6,0.6C90.3,148.6,90.5,148.4,90.7,148.2z"/>
	<path class="st0" d="M89.4,8.4c0.1-0.3,0.1-0.7,0.2-1C89.5,7.7,89.4,8,89.4,8.4z"/>
	<path class="st0" d="M91.5,16.6c-0.4-0.6-0.8-1.2-1.1-1.8C90.7,15.4,91.1,16,91.5,16.6z"/>
	<path class="st0" d="M89.5,12.7c-0.2-0.6-0.3-1.3-0.3-2C89.3,11.4,89.4,12,89.5,12.7z"/>
	<path class="st0" d="M90.8,186L90.8,186L90.8,186z"/>
	<path class="st0" d="M90.3,14.7c-0.3-0.6-0.6-1.2-0.7-1.9C89.8,13.5,90,14.1,90.3,14.7z"/>
	<path class="st0" d="M92.7,176.4c-0.1-0.1-0.1-0.2-0.2-0.4C92.6,176.1,92.6,176.2,92.7,176.4z"/>
	<path class="st0" d="M92.3,175.7c-0.2-0.2-0.3-0.4-0.6-0.6C92,175.3,92.1,175.5,92.3,175.7z"/>
	<path class="st0" d="M89.2,9.4c0-0.3,0.1-0.6,0.1-0.9C89.3,8.8,89.3,9.1,89.2,9.4z"/>
	<path class="st0" d="M93.1,145c-0.2,0.4-0.5,0.7-0.7,1.1C92.6,145.7,92.8,145.3,93.1,145z"/>
	<path class="st0" d="M92,146.5c-0.2,0.3-0.4,0.6-0.7,0.9C91.6,147.1,91.8,146.8,92,146.5z"/>
	<path class="st0" d="M89.7,7.2c0.1-0.3,0.2-0.6,0.3-0.9C89.9,6.6,89.8,6.9,89.7,7.2z"/>
	<path class="st1" d="M164.5,108.3c-4.7,6.1-9.6,8.8-15.9-1.1c-1.6-2.5-3.6-4.5-5.5-6.2c0.4-2.5,0.6-5.1,0.6-7.7
		c4.8,2.3,8.6,5.9,16,4.6c9.5-1.7,11.4-13.2,14.4-17.9c3-4.7,11.1-0.9,11.1-0.9c-8.1-8.3-17.2-4.1-19.7,3.7
		c-2.4,7.4-6,11.6-15.3,4.5c-2.4-1.8-4.9-3.1-7.3-3.9c-0.5-2.6-1.2-5.1-2-7.5c5.3,0.5,10.1,2.6,16.6-1.1c8.4-4.8,6.1-16.3,7.4-21.7
		c1.3-5.4,10.1-4.6,10.1-4.6c-10.5-5-17.6,2.1-17.2,10.2c0.3,7.8-1.7,12.9-12.9,9.4c-2.9-0.9-5.6-1.2-8.2-1.2
		c-1.3-2.2-2.8-4.3-4.5-6.3c5.2-1.3,10.4-1,15.2-6.7c6.2-7.4,0.2-17.4-0.5-22.9c-0.7-5.5,7.9-7.8,7.9-7.8
		c-11.6-1.1-15.8,7.9-12.7,15.5c3,7.2,2.8,12.7-8.9,13.3c-3,0.1-5.7,0.8-8.1,1.7c-2-1.6-4.1-3.1-6.4-4.4c4.4-3,9.4-4.4,12-11.5
		c3.3-9.1-5.8-16.4-8.3-21.4c-2.5-5,4.8-10,4.8-10c-11.2,2.9-12.1,12.9-6.6,18.9c5.2,5.7,7,11-3.8,15.5c-2.8,1.2-5.1,2.7-7,4.4
		c-2.4-0.8-4.9-1.5-7.5-2c3.1-4.3,7.3-7.4,7.3-15c0-9.7-11.1-13.5-15.1-17.3c-0.7-0.6-1.1-1.4-1.3-2.2l0,0v9.4
		c0.8,0.7,1.7,1.3,2.6,1.8c6.9,3.6,10.4,7.9,1.7,15.9c-2.2,2-3.9,4.3-5.1,6.5c0.2-0.4,0.5-0.9,0.8-1.3v10.4l0,0
		c22.9,0,41.5,18.6,41.5,41.5c0,22.9-18.6,41.5-41.5,41.5l0,0V145c0.3-0.4,0.5-0.9,0.8-1.3c2.6,0,5.2-0.3,7.7-0.7
		c-1.4,5.1-4.4,9.5-1.8,16.6c3.3,9.1,15,8.9,20.1,11.1c5.1,2.2,2.8,10.7,2.8,10.7c6.8-9.4,1-17.6-7.1-18.7c-7.7-1-12.5-3.9-7.1-14.3
		c1.4-2.7,2.2-5.3,2.6-7.9c2.4-0.9,4.8-2,7-3.3c0.4,5.3-0.9,10.4,4,16.2c6.2,7.4,17.1,3.2,22.7,3.5c5.5,0.3,6.3,9.1,6.3,9.1
		c3.1-11.2-5.1-16.9-13.1-15.2c-7.6,1.7-13,0.6-11.5-11.1c0.4-3,0.2-5.8-0.3-8.3c2-1.7,3.8-3.5,5.4-5.5c2.2,4.8,2.7,10.1,9.3,13.8
		c8.4,4.8,17.2-2.8,22.5-4.4c5.3-1.6,9.1,6.4,9.1,6.4c-0.9-11.6-10.6-14.2-17.5-9.8c-6.6,4.2-12.1,5-14.6-6.4
		c-0.7-2.9-1.8-5.5-3.1-7.7c1.3-2.2,2.3-4.6,3.2-7c3.7,3.8,6,8.5,13.4,9.8c9.5,1.7,15.2-8.5,19.6-11.9c4.4-3.3,10.7,2.9,10.7,2.9
		C179.5,101,169.6,101.9,164.5,108.3z"/>
	<path class="st0" d="M89.2,10.5c0-0.3,0-0.7,0-1C89.2,9.9,89.2,10.2,89.2,10.5z"/>
	<path class="st2" d="M93.1,8.9c-0.2-0.6-0.2-1.2-0.2-1.8c0,0,0,0,0,0c0-0.3,0-0.6,0.1-0.9c0,0,0,0,0,0c0-0.3,0.1-0.6,0.2-0.9
		c0,0,0,0,0,0V1.9l0,0c0,0,0,0,0,0c-0.3,0.3-0.6,0.6-0.9,0.9C92.1,2.9,92.1,3,92,3c-0.3,0.3-0.5,0.6-0.7,1c0,0,0,0,0,0.1
		C91,4.4,90.8,4.7,90.6,5c0,0.1-0.1,0.1-0.1,0.2c-0.2,0.3-0.3,0.7-0.5,1c0,0,0,0.1-0.1,0.1c-0.1,0.3-0.2,0.6-0.3,0.9
		c0,0.1,0,0.1-0.1,0.2c-0.1,0.3-0.2,0.7-0.2,1c0,0.1,0,0.1,0,0.2c-0.1,0.3-0.1,0.6-0.1,0.9c0,0,0,0.1,0,0.1c0,0.3,0,0.7,0,1
		c0,0.1,0,0.1,0,0.2c0,0.7,0.1,1.3,0.3,2c0,0,0,0.1,0,0.1c0.2,0.7,0.4,1.3,0.7,1.9c0,0,0,0.1,0,0.1c0.3,0.6,0.7,1.2,1.1,1.8
		c0,0,0,0,0,0c0.5,0.6,1,1.1,1.5,1.6c0,0,0,0,0,0l0,0V8.9L93.1,8.9z"/>
	<path class="st2" d="M93.1,134.5c-22.9,0-41.5-18.6-41.5-41.5c0-22.9,18.6-41.5,41.5-41.5h0V41.2c-0.3,0.4-0.5,0.9-0.8,1.3
		c-2.6,0-5.2,0.3-7.7,0.7C86,38,89,33.7,86.4,26.6c-3.3-9.1-15-8.9-20.1-11.1c-5.1-2.2-2.8-10.7-2.8-10.7c-6.8,9.4-1,17.7,7.1,18.7
		c7.7,1,12.5,3.9,7.1,14.3c-1.4,2.7-2.2,5.3-2.6,7.9c-2.4,0.9-4.8,2-7,3.3c-0.4-5.3,0.9-10.4-4-16.2c-6.2-7.4-17.1-3.2-22.7-3.5
		c-5.5-0.3-6.3-9.1-6.3-9.1c-3.1,11.2,5.1,16.9,13.1,15.2c7.6-1.7,13-0.6,11.5,11.1c-0.4,3-0.2,5.8,0.3,8.3c-2,1.7-3.8,3.5-5.4,5.5
		c-2.2-4.8-2.7-10.1-9.3-13.8c-8.4-4.8-17.2,2.8-22.5,4.4c-5.3,1.6-9.1-6.4-9.1-6.4c0.9,11.6,10.6,14.2,17.5,9.8
		c6.6-4.2,12.1-5,14.6,6.4c0.7,2.9,1.8,5.5,3.1,7.7c-1.3,2.2-2.3,4.6-3.2,7c-3.7-3.8-6-8.5-13.4-9.8C22.6,64,17,74.2,12.5,77.5
		c-4.4,3.3-10.7-2.9-10.7-2.9c4.8,10.6,14.8,9.7,19.8,3.2c4.7-6.1,9.6-8.8,15.9,1.1c1.6,2.5,3.5,4.5,5.5,6.2
		c-0.4,2.5-0.6,5.1-0.6,7.7c-4.8-2.3-8.6-5.9-16-4.6c-9.5,1.7-11.3,13.2-14.4,17.9C9,110.7,1,106.9,1,106.9
		c8.1,8.3,17.2,4.1,19.7-3.7c2.4-7.4,6-11.6,15.3-4.5c2.4,1.8,4.9,3.1,7.3,3.9c0.5,2.6,1.2,5,2,7.5c-5.3-0.5-10.1-2.6-16.6,1.1
		c-8.4,4.8-6.1,16.3-7.4,21.7c-1.3,5.4-10.1,4.6-10.1,4.6c10.5,5,17.6-2.1,17.2-10.2c-0.3-7.8,1.7-12.9,12.9-9.4
		c2.9,0.9,5.6,1.2,8.2,1.2c1.3,2.2,2.8,4.3,4.5,6.3c-5.2,1.3-10.4,1-15.2,6.7c-6.2,7.4-0.2,17.4,0.5,22.9c0.7,5.5-7.9,7.8-7.9,7.8
		c11.6,1.1,15.8-7.9,12.7-15.5c-3-7.2-2.8-12.7,8.9-13.3c3-0.1,5.7-0.8,8.1-1.7c2,1.6,4.1,3.1,6.4,4.4c-4.4,3-9.4,4.4-12,11.5
		c-3.3,9.1,5.8,16.4,8.3,21.4c2.5,5-4.8,10-4.8,10c11.2-2.9,12.1-12.9,6.6-18.9c-5.2-5.7-7-11,3.8-15.5c2.8-1.1,5.1-2.7,7-4.4
		c2.4,0.8,4.9,1.5,7.5,2c-3.1,4.3-7.3,7.4-7.3,14.9c0,9.7,11.1,13.5,15.1,17.3c0.2,0.2,0.4,0.4,0.6,0.6c0.1,0.1,0.1,0.2,0.2,0.3
		c0.1,0.1,0.1,0.2,0.2,0.4c0.1,0.3,0.3,0.6,0.4,0.9c0,0,0,0,0,0v-9.4v0c0,0,0,0,0,0c-0.4-0.3-0.8-0.7-1.2-1c0,0,0,0,0,0
		c-0.4-0.3-0.9-0.6-1.4-0.8c-6.9-3.6-10.4-7.9-1.7-15.9c0.5-0.5,1-0.9,1.4-1.4c0.2-0.2,0.4-0.4,0.6-0.6c0.2-0.3,0.4-0.5,0.7-0.8
		c0.2-0.3,0.4-0.6,0.7-0.9c0.1-0.2,0.2-0.3,0.4-0.5c0.2-0.4,0.5-0.7,0.7-1.1l0,0l0,0L93.1,134.5L93.1,134.5z"/>
	<path class="st3" d="M93.1,180.9L93.1,180.9c-0.6,2.5-1.9,4.7-2.3,5.2v0c0,0,0,0.1,0,0.1c0,0,0,0,0,0c0.4-0.3,0.8-0.6,1.1-0.8
		c0.1-0.1,0.2-0.1,0.3-0.2c0.3-0.3,0.7-0.6,1-0.9L93.1,180.9L93.1,180.9z"/>
	<path class="st4" d="M134.5,93.1c0-22.9-18.6-41.5-41.5-41.5v82.9C116,134.5,134.5,116,134.5,93.1z"/>
	<path class="st5" d="M51.6,93.1c0,22.9,18.6,41.5,41.5,41.5h0l0,0V51.6l0,0h0C70.2,51.6,51.6,70.2,51.6,93.1z"/>
</g>
</svg>
